<svg width="160" height="160" viewBox="0 0 16 16" fill="none" xmlns="http://www.w3.org/2000/svg">
<path d="
M 2 3.5
C 1.72421 3.5 1.5 3.72421 1.5 4
V 12
C 1.5 12.2758 1.72421 12.5 2 12.5
H 14
C 14.2758 12.5 14.5 12.2758 14.5 12
V 4
C 14.5 3.72421 14.2758 3.5 14 3.5
H 2Z
M 0 4
C 0 2.89579 0.895786 2 2 2
H 14
C 15.1042 2 16 2.89579 16 4
V 12
C 16 13.1042 15.1042 14 14 14
H 2
C 0.895786 14 0 13.1042 0 12
V 4Z
M 4.833333 3.5
V 12.5
h 1.5
V 3.5 Z
M 9.6666666 3.5
V 12.5
h 1.5
V 3.5 Z
" fill="black"/>
</svg>
